<?xml version="1.0" encoding="utf-8"?>
<!-- Generator: Adobe Illustrator 16.0.0, SVG Export Plug-In . SVG Version: 6.00 Build 0)  -->
<!DOCTYPE svg PUBLIC "-//W3C//DTD SVG 1.1//EN" "http://www.w3.org/Graphics/SVG/1.1/DTD/svg11.dtd">
<svg version="1.1" id="Calque_1" xmlns="http://www.w3.org/2000/svg" xmlns:xlink="http://www.w3.org/1999/xlink" x="0px" y="0px"
	 width="48px" height="48px" viewBox="0 0 48 48" enable-background="new 0 0 48 48" xml:space="preserve">
<circle fill="#AE042B" cx="24" cy="24" r="24"/>
<g>
	<g>
		<g>
			<path fill="#FFFFFF" d="M17.915,40.598c-4.726,0-7.436-2.513-7.436-6.895c0-0.897,0.063-1.9,0.192-3.064l0.012-0.111
				c0.099-0.885,0.191-1.722,0.191-2.477c0-0.172-0.012-0.272-0.022-0.327c-0.091-0.038-0.316-0.107-0.771-0.121L8.14,27.546v-6.657
				l1.942-0.056c0.438-0.013,0.67-0.075,0.774-0.113c0.009-0.062,0.019-0.167,0.019-0.336c0-0.756-0.093-1.593-0.192-2.479
				l-0.012-0.107c-0.129-1.167-0.192-2.169-0.192-3.064c0-4.295,2.793-6.859,7.472-6.859h3.26v7.06h-2.648
				c-0.061,0-0.109,0.002-0.148,0.006c-0.023,0.101-0.048,0.275-0.048,0.549c0,0.333,0.043,0.712,0.094,1.151
				c0.026,0.228,0.115,1.08,0.115,1.08c0.07,0.666,0.15,1.421,0.15,2.268c0.024,1.795-0.381,3.202-1.226,4.234
				c0.839,1.047,1.25,2.467,1.226,4.251c0,0.829-0.077,1.582-0.145,2.247c0,0-0.091,0.875-0.115,1.084
				c-0.051,0.44-0.1,0.856-0.1,1.178c0,0.295,0.026,0.479,0.05,0.586c0.039,0.003,0.086,0.006,0.146,0.006h2.648v7.023H17.915z"/>
		</g>
		<g>
			<path fill="#FFFFFF" d="M26.787,40.598v-7.023h2.648c0.059-0.001,0.107-0.006,0.146-0.012c0.022-0.102,0.05-0.284,0.05-0.58
				c0-0.446-0.052-1.009-0.158-1.721l-0.055-0.529c-0.068-0.668-0.146-1.425-0.146-2.285c-0.023-1.771,0.39-3.184,1.233-4.228
				c-0.851-1.035-1.257-2.449-1.233-4.258c0-0.826,0.08-1.585,0.151-2.255l0.038-0.366c0.106-0.756,0.17-1.316,0.17-1.852
				c0-0.274-0.025-0.445-0.047-0.542c-0.047-0.007-0.11-0.013-0.193-0.015l-2.604,0v-7.06h3.26c4.701,0,7.508,2.564,7.508,6.859
				c0,1.02-0.116,2.06-0.229,3.065c-0.108,0.978-0.203,1.823-0.203,2.586c0,0.17,0.012,0.273,0.021,0.331
				c0.097,0.039,0.325,0.104,0.772,0.118l1.941,0.057v6.655l-1.941,0.058c-0.459,0.014-0.702,0.092-0.785,0.134
				c0.01,0.016-0.009,0.115-0.009,0.314c0,0.763,0.094,1.606,0.194,2.501c0.116,1.043,0.237,2.129,0.237,3.151
				c0,4.382-2.723,6.895-7.471,6.895H26.787z"/>
		</g>
	</g>
</g>
</svg>
